<svg xmlns="http://www.w3.org/2000/svg" viewBox="0 0 340.52 303.25">
  <path fill="#FB4" d="M79.75 139.75A83.4 83.4 0 01118 149a70.19 70.19 0 11104.57 0 83.39 83.39 0 0138.23-9.21q2.25 0 4.47.12a102.19 102.19 0 10-190 0q2.23-.16 4.48-.16z"/>
  <path fill="#09F" d="M170.26 172.37a69.76 69.76 0 01-29.9-6.69l29.9 29.89 29.9-29.89a69.79 69.79 0 01-29.9 6.69z"/>
  <path fill="#234" d="M260.77 303.25a79.24 79.24 0 01-56.39-23.35l-34.12-34.12-34.12 34.12a79.75 79.75 0 11-.68-113.47l1.25 1.25 33.55 33.55 34.8-34.8a79.75 79.75 0 1155.71 136.82zm-68.24-79.75l34.12 34.12a48.25 48.25 0 10.44-68.67l-1 1zM79.75 175.25a48.25 48.25 0 1034.12 82.37L148 223.5l-34.57-34.56a48 48 0 00-33.68-13.69z"/>
</svg>
